<svg xmlns="http://www.w3.org/2000/svg" viewBox="0 0 400 400" width="400" height="400">
  <!-- Background -->
  <rect width="400" height="400" fill="#E5E7EB"/>
  
  <!-- Suit/Body -->
  <rect x="100" y="280" width="200" height="120" fill="#111827"/>
  
  <!-- Shirt -->
  <rect x="140" y="280" width="120" height="80" fill="#FFFFFF"/>
  
  <!-- Tie -->
  <rect x="190" y="280" width="20" height="80" fill="#374151"/>
  
  <!-- Face -->
  <ellipse cx="200" cy="180" rx="70" ry="80" fill="#F3C5A7"/>
  
  <!-- Hair -->
  <path d="M130 120 Q200 80 270 120 Q270 160 260 180 Q250 200 240 190 Q220 180 200 185 Q180 180 160 190 Q150 200 140 180 Q130 160 130 120" fill="#374151"/>
  
  <!-- Beard -->
  <path d="M170 210 Q200 240 230 210 Q235 230 230 250 Q200 270 170 250 Q165 230 170 210" fill="#374151"/>
  
  <!-- Glasses -->
  <rect x="160" y="170" width="35" height="25" fill="none" stroke="#374151" stroke-width="3" rx="5"/>
  <rect x="205" y="170" width="35" height="25" fill="none" stroke="#374151" stroke-width="3" rx="5"/>
  <line x1="195" y1="182" x2="205" y2="182" stroke="#374151" stroke-width="3"/>
  
  <!-- Eyes -->
  <circle cx="177" cy="182" r="8" fill="#FFFFFF"/>
  <circle cx="177" cy="182" r="5" fill="#3B82F6"/>
  <circle cx="223" cy="182" r="8" fill="#FFFFFF"/>
  <circle cx="223" cy="182" r="5" fill="#3B82F6"/>
  
  <!-- Eyebrows -->
  <path d="M165 165 Q177 160 190 165" stroke="#374151" stroke-width="3" fill="none"/>
  <path d="M210 165 Q223 160 235 165" stroke="#374151" stroke-width="3" fill="none"/>
  
  <!-- Nose -->
  <path d="M195 190 Q200 200 205 190" stroke="#D1A584" stroke-width="2" fill="none"/>
  
  <!-- Mouth -->
  <path d="M185 220 Q200 230 215 220" stroke="#B91C1C" stroke-width="3" fill="none"/>
</svg>
