<svg xmlns="http://www.w3.org/2000/svg" viewBox="0 0 400 400" width="400" height="400">
  <!-- Background -->
  <rect width="400" height="400" fill="#E5E7EB"/>
  
  <!-- Shirt/Blouse -->
  <rect x="100" y="280" width="200" height="120" fill="#0891B2"/>
  
  <!-- Face -->
  <ellipse cx="200" cy="180" rx="65" ry="75" fill="#F8B5A7"/>
  
  <!-- Hair -->
  <path d="M135 100 Q200 60 265 100 Q270 140 265 180 Q260 220 250 240 Q240 250 230 245 Q220 240 210 245 Q200 250 190 245 Q180 240 170 245 Q160 250 150 240 Q140 220 135 180 Q130 140 135 100" fill="#B91C1C"/>
  
  <!-- Hair strands -->
  <path d="M265 120 Q280 140 275 160 Q270 180 265 180" fill="#B91C1C"/>
  <path d="M135 120 Q120 140 125 160 Q130 180 135 180" fill="#B91C1C"/>
  
  <!-- Eyes -->
  <circle cx="180" cy="170" r="8" fill="#FFFFFF"/>
  <circle cx="180" cy="170" r="5" fill="#1E40AF"/>
  <circle cx="220" cy="170" r="8" fill="#FFFFFF"/>
  <circle cx="220" cy="170" r="5" fill="#1E40AF"/>
  
  <!-- Eyebrows -->
  <path d="M170 155 Q180 150 190 155" stroke="#B91C1C" stroke-width="3" fill="none"/>
  <path d="M210 155 Q220 150 230 155" stroke="#B91C1C" stroke-width="3" fill="none"/>
  
  <!-- Nose -->
  <path d="M195 185 Q200 195 205 185" stroke="#E8A089" stroke-width="2" fill="none"/>
  
  <!-- Mouth -->
  <ellipse cx="200" cy="210" rx="12" ry="6" fill="#EC4899"/>
  
  <!-- Collar -->
  <path d="M140 280 Q200 270 260 280 L260 300 Q200 290 140 300 Z" fill="#0891B2" stroke="#065F74" stroke-width="2"/>
</svg>
