<svg xmlns="http://www.w3.org/2000/svg" viewBox="0 0 64 64" width="64" height="64">
  <defs>
    <linearGradient id="hotelGradient" x1="0%" y1="0%" x2="100%" y2="100%">
      <stop offset="0%" style="stop-color:#3B82F6;stop-opacity:1" />
      <stop offset="100%" style="stop-color:#1E40AF;stop-opacity:1" />
    </linearGradient>
  </defs>
  
  <!-- Fondo circular -->
  <circle cx="32" cy="32" r="30" fill="url(#hotelGradient)" stroke="#1E40AF" stroke-width="2"/>
  
  <!-- Hotel building -->
  <rect x="20" y="25" width="24" height="25" fill="white" rx="2"/>
  
  <!-- Ventanas del hotel -->
  <rect x="23" y="28" width="3" height="3" fill="#3B82F6"/>
  <rect x="28" y="28" width="3" height="3" fill="#3B82F6"/>
  <rect x="33" y="28" width="3" height="3" fill="#3B82F6"/>
  <rect x="38" y="28" width="3" height="3" fill="#3B82F6"/>
  
  <rect x="23" y="33" width="3" height="3" fill="#3B82F6"/>
  <rect x="28" y="33" width="3" height="3" fill="#3B82F6"/>
  <rect x="33" y="33" width="3" height="3" fill="#3B82F6"/>
  <rect x="38" y="33" width="3" height="3" fill="#3B82F6"/>
  
  <rect x="23" y="38" width="3" height="3" fill="#3B82F6"/>
  <rect x="28" y="38" width="3" height="3" fill="#3B82F6"/>
  <rect x="33" y="38" width="3" height="3" fill="#3B82F6"/>
  <rect x="38" y="38" width="3" height="3" fill="#3B82F6"/>
  
  <!-- Puerta principal -->
  <rect x="29" y="42" width="6" height="8" fill="#1E40AF" rx="3"/>
  
  <!-- Techo -->
  <polygon points="18,25 32,18 46,25" fill="#EF4444"/>
  
  <!-- Letras IH (InnovaHost) -->
  <text x="32" y="56" font-family="Arial, sans-serif" font-size="8" font-weight="bold" text-anchor="middle" fill="white">IH</text>
</svg>
